<?xml version="1.0" encoding="UTF-8"?>
<svg version="1.1" xmlns="http://www.w3.org/2000/svg" width="835" height="299">
<path d="M0 0 C1.51118242 3.02236483 1.51906079 5.73127902 1 9 C-0.33057475 12.49666124 -2.0757956 15.72434924 -3.875 19 C-4.3695166 19.92192139 -4.8640332 20.84384277 -5.37353516 21.79370117 C-10.22910325 30.70124781 -15.78565544 39.02715196 -21.62890625 47.30859375 C-27.46911101 55.97301694 -28.482335 65.77165369 -29 76 C-16.90078169 73.42184881 -9.61676986 68.41971267 -1.89257812 58.96313477 C0.26131846 56.42478524 1.40404912 55.08922428 4.765625 54.5859375 C7 55 7 55 8 56 C8.66984658 61.60466568 6.77290702 65.00336069 4.0625 69.6875 C1.1953411 74.68564062 1.1953411 74.68564062 -1 80 C7.73801853 80.76649285 15.00579875 78.17883029 23 75 C24.38638672 74.45279297 24.38638672 74.45279297 25.80078125 73.89453125 C35.11544574 69.30405067 40.37000627 59.29672097 45.3984375 50.57421875 C47.928858 46.50703067 50.8282517 42.71537031 53.6875 38.875 C58.71084721 32.13012869 58.71084721 32.13012869 63.62890625 25.30859375 C64.32886719 24.31988281 65.02882813 23.33117187 65.75 22.3125 C66.63945313 21.03826172 66.63945313 21.03826172 67.546875 19.73828125 C68.02640625 19.16464844 68.5059375 18.59101562 69 18 C69.66 18 70.32 18 71 18 C71.23976563 17.45472656 71.47953125 16.90945312 71.7265625 16.34765625 C73.31416067 13.42082649 75.26560324 11.01292628 77.375 8.4375 C78.14585937 7.48746094 78.91671875 6.53742188 79.7109375 5.55859375 C83.60307469 1.20816737 86.16257656 -0.33665643 92 -1 C93.14063716 2.42191149 93.06452522 3.60151574 92 7 C90.07421875 9.71875 90.07421875 9.71875 87.6875 12.5 C86.90761719 13.4178125 86.12773438 14.335625 85.32421875 15.28125 C84.55722656 16.1784375 83.79023437 17.075625 83 18 C79.33745033 22.44954381 75.96256124 27.09946031 72.5625 31.75 C67.23663995 39.01932684 61.82619564 46.21325842 56.26391602 53.30371094 C53.10770797 57.3729052 50.45303032 61.46952294 48 66 C48.7734375 65.52949219 49.546875 65.05898437 50.34375 64.57421875 C60.21154685 58.67552336 68.13517656 54.20709335 80 56 C82.76094876 58.00525804 82.97008445 58.85586142 83.6875 62.3125 C82.92896686 66.38099592 82.54300819 66.83661088 79.4375 69.25 C72.44171849 73.84442744 66.26440222 75.5177713 58 76 C58 76.66 58 77.32 58 78 C68.13330119 82.26665313 79.06331743 79.88166052 89 76 C92.93935807 74.13724163 96.76107662 72.0764797 100.54125977 69.91040039 C102.33313458 68.89000084 104.16376897 67.93823569 106 67 C106.66 67.33 107.32 67.66 108 68 C108 70.97 108 73.94 108 77 C78.29031319 93.28438901 78.29031319 93.28438901 64 91 C58.40512336 89.0140827 53.10445577 86.57423966 49.125 82.0625 C47.14656283 79.70776948 47.14656283 79.70776948 44.125 79.75 C40.91820847 81.03271661 39.84679529 82.02662434 37.5625 84.5 C34.98515335 87.27121786 34.09416204 87.9712726 30.3125 89.125 C27 89 27 89 25.16796875 87.34765625 C24.45253906 86.90292969 23.73710937 86.45820313 23 86 C20.0623709 86.75294048 20.0623709 86.75294048 17 88.3125 C9.86707787 91.2825495 2.9740316 93.00859146 -4.45703125 90.0078125 C-8.22619506 87.82101836 -10.25257554 86.04848836 -12 82 C-12.52207031 82.2165625 -13.04414063 82.433125 -13.58203125 82.65625 C-19.64858008 84.95112662 -25.5371435 86.23611864 -32 85 C-35.48123023 82.99584105 -38.19375427 80.61249145 -40 77 C-40.22467831 75.46331135 -40.40796805 73.92031946 -40.5625 72.375 C-40.64628906 71.55773437 -40.73007812 70.74046875 -40.81640625 69.8984375 C-40.87699219 69.27195312 -40.93757812 68.64546875 -41 68 C-41.60585938 68.71285156 -42.21171875 69.42570312 -42.8359375 70.16015625 C-50.8085376 79.27345144 -61.5906707 89.92378121 -74.3046875 91.23828125 C-81.28174738 91.4397465 -81.28174738 91.4397465 -85.0625 89.125 C-87 87 -87 87 -88 85 C-87.67 84.01 -87.34 83.02 -87 82 C-88.13695312 82.66386719 -89.27390625 83.32773438 -90.4453125 84.01171875 C-115.84011021 98.6232567 -115.84011021 98.6232567 -127 97 C-130.21173075 95.50119232 -132.7740705 93.76064999 -135 91 C-136.8521729 81.82528307 -133.62060209 74.75601066 -129 67 C-132.010904 66.19350786 -133.95224373 65.7077494 -137 66 C-140.05334933 67.92595881 -142.4505673 70.4606841 -145 73 C-153.50437291 80.5379669 -166.00314748 88.07438576 -177.6015625 88.30078125 C-183.34033556 87.58109798 -187.29124201 85.11141652 -191 80.75 C-191.66 79.8425 -192.32 78.935 -193 78 C-198.23319519 80.08035661 -202.92468448 82.5109597 -207.625 85.625 C-213.16554185 89.22095056 -216.94768062 91.10346845 -223.6875 90.875 C-227.44715444 89.88188373 -228.81183272 89.19809064 -231 86 C-232.49656926 81.51029222 -232.18578567 78.69833284 -230.125 74.5625 C-223.54947121 64.00940338 -212.57543202 57.85847734 -201 54 C-189.59490741 52.94675926 -189.59490741 52.94675926 -184.6875 56.1875 C-182.865414 59.22431001 -182.54515333 60.54316531 -183 64 C-183 66.77996107 -182.78702071 69.42492567 -182.5 72.1875 C-182.4071875 73.08855469 -182.314375 73.98960937 -182.21875 74.91796875 C-182.11046875 75.94857422 -182.11046875 75.94857422 -182 77 C-170.25978445 77.9783513 -160.87093385 72.12331596 -150.89990234 66.59179688 C-146.20009409 64 -146.20009409 64 -144 64 C-144.12375 62.865625 -144.2475 61.73125 -144.375 60.5625 C-144.42505246 54.95662435 -141.35833935 51.25141575 -138 47 C-137 46 -137 46 -134.125 45.8125 C-131 46 -131 46 -128 48 C-127.59156077 50.71203652 -127.86663133 53.2437142 -128 56 C-125.29816945 57.35091528 -122.88191794 57.33858058 -119.875 57.5625 C-118.77929688 57.64628906 -117.68359375 57.73007813 -116.5546875 57.81640625 C-115.29011719 57.90728516 -115.29011719 57.90728516 -114 58 C-112.79158517 62.14441531 -113.15690082 65.11377536 -115 69 C-116.98477878 71.83304523 -119.05751931 74.5562944 -121.22265625 77.25390625 C-123.16518384 80.25521811 -123.66324013 82.47179275 -124 86 C-110.65416886 84.98895219 -99.63269414 78.73274354 -88.90625 71.12109375 C-85.94875246 69.38174581 -83.39635131 69.14452559 -80 69 C-80 68.34 -80 67.68 -80 67 C-78.09375 65.37890625 -78.09375 65.37890625 -75.5 63.5625 C-74.6646875 62.96566406 -73.829375 62.36882812 -72.96875 61.75390625 C-66.79455253 58.10625537 -62.07549072 56.68430335 -54.89575195 57.24804688 C-47.33787168 57.93796 -47.33787168 57.93796 -40.4921875 55.34765625 C-38.57131768 52.66290564 -37.30003716 50.03588222 -36 47 C-35.10305037 45.19408802 -34.20553928 43.38842727 -33.29736328 41.58813477 C-32.63346827 40.26478827 -31.97835639 38.93700347 -31.33154297 37.60522461 C-28.47373072 31.75710525 -25.27435921 26.14943601 -21.9375 20.5625 C-21.45514893 19.74668457 -20.97279785 18.93086914 -20.47583008 18.09033203 C-10.2488544 1.1528193 -10.2488544 1.1528193 -5.0625 -0.6875 C-3 -1 -3 -1 0 0 Z M-218 75 C-218.94436349 77.16531168 -218.94436349 77.16531168 -219 79 C-213.26370197 76.6823816 -207.9456891 73.85328611 -202.5625 70.8125 C-201.73556641 70.34908203 -200.90863281 69.88566406 -200.05664062 69.40820312 C-198.03599035 68.27523736 -196.01718515 67.13912008 -194 66 C-194 65.67 -194 65.34 -194 65 C-204.0113802 64.20544602 -210.90628408 68.08362698 -218 75 Z M-70.98046875 73.890625 C-72.38934424 75.53710182 -73.70526803 77.26233341 -75 79 C-70.69324377 80.47438501 -68.3632653 79.26516397 -64.39453125 77.3828125 C-60.49623756 75.13159559 -57.02163613 72.34273643 -54 69 C-54 68.34 -54 67.68 -54 67 C-60.53817375 66.61540154 -66.27062048 69.39443849 -70.98046875 73.890625 Z " fill="#010101" transform="translate(484,86)"/>
<path d="M0 0 C4.70588235 0.70588235 4.70588235 0.70588235 6 2 C6.6778278 7.645705 4.74521656 11.1231349 2.0625 15.875 C1.65572021 16.6189502 1.24894043 17.36290039 0.82983398 18.12939453 C-0.43228902 20.42800961 -1.71268432 22.71541198 -3 25 C-3.37898437 25.67417969 -3.75796875 26.34835938 -4.1484375 27.04296875 C-5.60625022 29.63291263 -7.06683444 32.22125371 -8.53271484 34.80664062 C-11.62786711 40.28445058 -14.61540772 45.81624832 -17.5625 51.375 C-18.00456787 52.20241699 -18.44663574 53.02983398 -18.90209961 53.88232422 C-19.3069458 54.6507666 -19.71179199 55.41920898 -20.12890625 56.2109375 C-20.49056885 56.89462402 -20.85223145 57.57831055 -21.22485352 58.28271484 C-22.13713655 59.98979631 -22.13713655 59.98979631 -22 62 C-21.14535156 62.06058594 -20.29070312 62.12117188 -19.41015625 62.18359375 C-18.30542969 62.26738281 -17.20070313 62.35117188 -16.0625 62.4375 C-14.96035156 62.51871094 -13.85820312 62.59992188 -12.72265625 62.68359375 C-10 63 -10 63 -9 64 C-8.875 67.5 -8.875 67.5 -9 71 C-10.54950268 72.54950268 -12.09990594 72.21655193 -14.25390625 72.31640625 C-15.10791016 72.35830078 -15.96191406 72.40019531 -16.84179688 72.44335938 C-17.73962891 72.48267578 -18.63746094 72.52199219 -19.5625 72.5625 C-20.46419922 72.60568359 -21.36589844 72.64886719 -22.29492188 72.69335938 C-24.52978485 72.79978142 -26.76476308 72.90179988 -29 73 C-39.4004768 93.41657107 -39.4004768 93.41657107 -49.0625 114.1875 C-53.96225872 125.21419445 -53.96225872 125.21419445 -56.1875 129.6875 C-56.59355469 130.51636719 -56.99960938 131.34523437 -57.41796875 132.19921875 C-59 134 -59 134 -62.05078125 134.83203125 C-65 135 -65 135 -67 134 C-67 133.34 -67 132.68 -67 132 C-67.66 131.67 -68.32 131.34 -69 131 C-68.37192587 128.06175875 -67.42999097 125.68643911 -65.99609375 123.05078125 C-65.58939453 122.29410156 -65.18269531 121.53742188 -64.76367188 120.7578125 C-64.32603516 119.95085937 -63.88839844 119.14390625 -63.4375 118.3125 C-59.78697032 111.49054012 -56.35007419 104.62021192 -53.12303162 97.58930969 C-50.50823696 91.95270108 -47.66393626 86.45567503 -44.75 80.96875 C-44.29109375 80.10088867 -43.8321875 79.23302734 -43.359375 78.33886719 C-42.24129506 76.2249973 -41.12148006 74.11206737 -40 72 C-46.28076749 72.40514939 -52.56124884 72.81453391 -58.84155273 73.22680664 C-60.97625536 73.36644496 -63.11102068 73.50512834 -65.24584961 73.64282227 C-68.32162345 73.8413749 -71.3971524 74.04340706 -74.47265625 74.24609375 C-75.42084732 74.3065538 -76.36903839 74.36701385 -77.34596252 74.42930603 C-84.71350972 74.89207974 -84.71350972 74.89207974 -92 76 C-94.07023708 78.29657883 -94.07023708 78.29657883 -95.5 81.5 C-96.16059913 82.77201746 -96.82642734 84.0413264 -97.49609375 85.30859375 C-97.87620605 86.03675293 -98.25631836 86.76491211 -98.64794922 87.51513672 C-101.43493116 92.63718478 -104.53181632 97.58225373 -107.5625 102.5625 C-112.20821635 110.20252572 -116.66079331 117.76463265 -120.3125 125.9375 C-122 128 -122 128 -125.53515625 128.90234375 C-129 129 -129 129 -131.4375 127.5625 C-131.953125 127.046875 -132.46875 126.53125 -133 126 C-132.67 124.68 -132.34 123.36 -132 122 C-131.34 122 -130.68 122 -130 122 C-130.061875 120.576875 -130.061875 120.576875 -130.125 119.125 C-130 116 -130 116 -128 114 C-127.67910108 111.04355866 -127.67910108 111.04355866 -127.75 107.6875 C-127.74484375 106.55699219 -127.7396875 105.42648438 -127.734375 104.26171875 C-128.15002438 99.15778888 -129.56287937 96.02103412 -133.25 92.5 C-133.86488281 91.89929688 -134.47976562 91.29859375 -135.11328125 90.6796875 C-136.8198918 89.16034478 -138.56030392 87.91808044 -140.4375 86.625 C-143.63499178 83.34952061 -143.67626721 81.59794034 -143.69921875 77.18359375 C-142.64841224 73.90202482 -140.86131372 72.83548558 -138 71 C-125.16199636 66.60943788 -110.41503115 66.84901402 -97 66 C-96.72542969 65.11731445 -96.45085937 64.23462891 -96.16796875 63.32519531 C-95.09569047 60.27242981 -93.86279035 57.6288095 -92.3125 54.796875 C-91.78325928 53.82435791 -91.25401855 52.85184082 -90.70874023 51.84985352 C-90.14485596 50.82690186 -89.58097168 49.8039502 -89 48.75 C-88.4212915 47.69546631 -87.84258301 46.64093262 -87.24633789 45.55444336 C-86.06575935 43.40437665 -84.88355358 41.25520263 -83.69970703 39.10693359 C-82.12886279 36.23555125 -80.58787421 33.35070592 -79.05859375 30.45703125 C-78.18497621 28.82547779 -77.31128324 27.19396472 -76.4375 25.5625 C-76.04498047 24.80614258 -75.65246094 24.04978516 -75.24804688 23.27050781 C-72.50792803 18.21529722 -72.50792803 18.21529722 -70.05493164 17.17553711 C-68 17 -68 17 -65 19 C-63.66658118 22.32174689 -63.9155785 23.77791075 -65.1953125 27.14453125 C-65.82346425 28.37500167 -66.46800551 29.5971851 -67.125 30.8125 C-67.64513672 31.81313477 -67.64513672 31.81313477 -68.17578125 32.83398438 C-69.432052 35.23290412 -70.71422906 37.61676021 -72 40 C-72.82129395 41.53019775 -72.82129395 41.53019775 -73.65917969 43.09130859 C-77.41181854 50.07601891 -81.19441683 57.04400732 -85 64 C-79.0224349 63.73756472 -73.04507812 63.47090783 -67.06787109 63.20043945 C-65.03699773 63.10912611 -63.00607332 63.0189405 -60.97509766 62.92993164 C-58.04575485 62.80135087 -55.11662322 62.66863516 -52.1875 62.53515625 C-51.28821777 62.49656998 -50.38893555 62.4579837 -49.46240234 62.41822815 C-46.97275137 62.30256768 -44.48702173 62.1623082 -42 62 C-40.84540283 61.92664429 -40.84540283 61.92664429 -39.66748047 61.85180664 C-37.2678641 61.67241588 -37.2678641 61.67241588 -34 61 C-32.15862807 58.48729456 -31.14414886 56.68516738 -30 53.875 C-29.33418845 52.40266841 -28.66616648 50.93133468 -27.99609375 49.4609375 C-27.66593262 48.71295898 -27.33577148 47.96498047 -26.99560547 47.19433594 C-25.49388577 43.88451331 -23.79316696 40.69455126 -22.0625 37.5 C-21.73507813 36.89027344 -21.40765625 36.28054687 -21.0703125 35.65234375 C-4.03584872 4.03584872 -4.03584872 4.03584872 0 0 Z M-121.375 78.375 C-122.08527344 78.50132812 -122.79554688 78.62765625 -123.52734375 78.7578125 C-127.69045329 79.50002043 -127.69045329 79.50002043 -131 82 C-130.38511719 82.79664063 -129.77023438 83.59328125 -129.13671875 84.4140625 C-128.32005263 85.48417673 -127.50366099 86.55450047 -126.6875 87.625 C-125.48673828 89.19121094 -125.48673828 89.19121094 -124.26171875 90.7890625 C-122.16141629 93.77083904 -120.53217103 96.6976508 -119 100 C-114.8830697 96.40249549 -112.44951483 92.0520664 -109.75 87.375 C-109.29109375 86.59898437 -108.8321875 85.82296875 -108.359375 85.0234375 C-105.89840374 81.24842815 -105.89840374 81.24842815 -105 77 C-110.6587601 76.86012054 -115.82619964 77.29230725 -121.375 78.375 Z " fill="#010101" transform="translate(271,74)"/>
<path d="M0 0 C3 2 3 2 3.875 3.8125 C4.05405331 6.94593298 2.78508157 8.48766297 1 11 C0.34 11.66 -0.32 12.32 -1 13 C-5.55555556 12.44444444 -5.55555556 12.44444444 -7 11 C-7.40680103 7.33879072 -7.5001525 5.6381256 -5.1875 2.6875 C-3 1 -3 1 0 0 Z " fill="#010101" transform="translate(497,129)"/>
<path d="M0 0 C0.33 0 0.66 0 1 0 C1 1.65 1 3.3 1 5 C0.67 5 0.34 5 0 5 C0 3.35 0 1.7 0 0 Z " fill="#000000" transform="translate(126,151)"/>
<path d="" fill="currentColor" transform="translate(0,0)"/>
<path d="" fill="currentColor"  transform="translate(0,0)"/>
<path d="" fill="currentColor" transform="translate(0,0)"/>
<path d="" fill="currentColor"  transform="translate(0,0)"/>
</svg>
