<?xml version="1.0" standalone="no"?>
<!DOCTYPE svg PUBLIC "-//W3C//DTD SVG 20010904//EN"
 "http://www.w3.org/TR/2001/REC-SVG-20010904/DTD/svg10.dtd">
<svg version="1.0" xmlns="http://www.w3.org/2000/svg"
 width="499.000000pt" height="274.000000pt" viewBox="0 0 499.000000 274.000000"
 preserveAspectRatio="xMidYMid meet">
<metadata>
Created by potrace 1.16, written by Peter Selinger 2001-2019
</metadata>
<g transform="translate(0.000000,274.000000) scale(0.100000,-0.100000)"
fill="#000000" stroke="none">
<path d="M137 2613 c-4 -3 -7 -573 -7 -1265 l0 -1258 261 2 261 3 1 550 2 550
535 0 535 0 3 -552 2 -553 260 0 260 0 -2 1263 -3 1262 -255 0 -255 0 -5 -490
-5 -490 -532 -3 c-503 -2 -533 -1 -534 15 0 10 -1 232 -2 493 l-2 475 -256 3
c-140 1 -258 -1 -262 -5z"/>
<path d="M2723 2605 c-3 -10 -3 -367 0 -794 4 -427 7 -989 7 -1248 l0 -473
574 0 c537 0 581 1 678 20 109 22 127 27 251 71 161 56 368 219 461 361 95
147 149 283 183 463 25 133 24 584 -1 710 -10 50 -21 104 -23 120 -3 17 -9 35
-13 40 -4 6 -17 37 -28 70 -22 66 -44 117 -52 125 -3 3 -16 25 -29 50 -53 100
-171 228 -277 300 -106 73 -264 135 -439 172 -94 20 -138 21 -692 26 -556 4
-593 3 -600 -13z m1182 -428 c189 -60 292 -139 362 -278 72 -144 88 -207 103
-404 9 -122 8 -180 -3 -310 -17 -183 -29 -231 -88 -353 -77 -157 -193 -248
-384 -299 -60 -15 -110 -18 -360 -18 l-290 0 -3 830 c-1 457 0 836 3 843 8 21
590 11 660 -11z"/>
</g>
</svg>
